<svg width="52" height="55" viewBox="0 0 52 55" fill="none" xmlns="http://www.w3.org/2000/svg">
<rect width="52" height="55" fill="#9ED0E0"/>
<path d="M20.7205 23.5065L25.8939 28.6799L31.0672 23.5065C31.1906 23.3831 31.3372 23.2852 31.4985 23.2184C31.6597 23.1516 31.8326 23.1172 32.0072 23.1172C32.1818 23.1172 32.3546 23.1516 32.5159 23.2184C32.6772 23.2852 32.8237 23.3831 32.9472 23.5065C33.0706 23.63 33.1685 23.7765 33.2354 23.9378C33.3022 24.0991 33.3365 24.272 33.3365 24.4465C33.3365 24.6211 33.3022 24.794 33.2354 24.9553C33.1685 25.1166 33.0706 25.2631 32.9472 25.3865L26.8272 31.5065C26.3072 32.0265 25.4672 32.0265 24.9472 31.5065L18.8272 25.3865C18.7036 25.2632 18.6055 25.1167 18.5386 24.9554C18.4717 24.7941 18.4373 24.6212 18.4373 24.4465C18.4373 24.2719 18.4717 24.099 18.5386 23.9377C18.6055 23.7764 18.7036 23.6299 18.8272 23.5065C19.3472 22.9999 20.2005 22.9865 20.7205 23.5065Z" fill="white"/>
</svg>
