<svg width="755" height="125" viewBox="0 0 755 125" fill="none" xmlns="http://www.w3.org/2000/svg">
<mask id="path-1-outside-1_652_926" maskUnits="userSpaceOnUse" x="3" y="11" width="744" height="82" fill="black">
<rect fill="white" x="3" y="11" width="744" height="82"/>
<path d="M5.8543 51.8C5.8543 46.8 6.78763 42.0667 8.6543 37.6C10.5876 33.1333 13.2543 29.1667 16.6543 25.7C20.0543 22.2333 23.9876 19.5333 28.4543 17.6C32.921 15.6 37.721 14.6 42.8543 14.6C47.921 14.6 52.6876 15.6 57.1543 17.6C61.621 19.5333 65.5876 22.2333 69.0543 25.7C72.521 29.1667 75.221 33.1333 77.1543 37.6C79.0876 42.0667 80.0543 46.8 80.0543 51.8C80.0543 56.9333 79.0876 61.7333 77.1543 66.2C75.221 70.6667 72.521 74.6 69.0543 78C65.6543 81.4 61.6876 84.0667 57.1543 86C52.6876 87.8667 47.921 88.8 42.8543 88.8C37.721 88.8 32.921 87.8667 28.4543 86C23.9876 84.1333 20.0543 81.5333 16.6543 78.2C13.2543 74.8 10.5876 70.8667 8.6543 66.4C6.78763 61.8667 5.8543 57 5.8543 51.8ZM16.8543 51.8C16.8543 55.5333 17.521 59.0333 18.8543 62.3C20.2543 65.5 22.1543 68.3333 24.5543 70.8C26.9543 73.2 29.721 75.1 32.8543 76.5C36.0543 77.8333 39.4876 78.5 43.1543 78.5C46.7543 78.5 50.121 77.8333 53.2543 76.5C56.3876 75.1 59.121 73.2 61.4543 70.8C63.8543 68.3333 65.721 65.5 67.0543 62.3C68.3876 59.0333 69.0543 55.5333 69.0543 51.8C69.0543 48.0667 68.3543 44.6 66.9543 41.4C65.621 38.1333 63.7543 35.2667 61.3543 32.8C59.021 30.3333 56.2543 28.4 53.0543 27C49.921 25.6 46.5543 24.9 42.9543 24.9C39.221 24.9 35.7876 25.6 32.6543 27C29.521 28.4 26.7543 30.3333 24.3543 32.8C21.9543 35.2667 20.0876 38.1333 18.7543 41.4C17.4876 44.6667 16.8543 48.1333 16.8543 51.8ZM187.299 90.5L131.399 35L134.499 36L134.799 88H123.999V13.1H124.499L179.699 68.7L177.199 68L176.999 15.4H187.599V90.5H187.299ZM231.581 51.8C231.581 46.8 232.514 42.0667 234.381 37.6C236.314 33.1333 238.981 29.1667 242.381 25.7C245.781 22.2333 249.714 19.5333 254.181 17.6C258.648 15.6 263.448 14.6 268.581 14.6C273.648 14.6 278.414 15.6 282.881 17.6C287.348 19.5333 291.314 22.2333 294.781 25.7C298.248 29.1667 300.948 33.1333 302.881 37.6C304.814 42.0667 305.781 46.8 305.781 51.8C305.781 56.9333 304.814 61.7333 302.881 66.2C300.948 70.6667 298.248 74.6 294.781 78C291.381 81.4 287.414 84.0667 282.881 86C278.414 87.8667 273.648 88.8 268.581 88.8C263.448 88.8 258.648 87.8667 254.181 86C249.714 84.1333 245.781 81.5333 242.381 78.2C238.981 74.8 236.314 70.8667 234.381 66.4C232.514 61.8667 231.581 57 231.581 51.8ZM242.581 51.8C242.581 55.5333 243.248 59.0333 244.581 62.3C245.981 65.5 247.881 68.3333 250.281 70.8C252.681 73.2 255.448 75.1 258.581 76.5C261.781 77.8333 265.214 78.5 268.881 78.5C272.481 78.5 275.848 77.8333 278.981 76.5C282.114 75.1 284.848 73.2 287.181 70.8C289.581 68.3333 291.448 65.5 292.781 62.3C294.114 59.0333 294.781 55.5333 294.781 51.8C294.781 48.0667 294.081 44.6 292.681 41.4C291.348 38.1333 289.481 35.2667 287.081 32.8C284.748 30.3333 281.981 28.4 278.781 27C275.648 25.6 272.281 24.9 268.681 24.9C264.948 24.9 261.514 25.6 258.381 27C255.248 28.4 252.481 30.3333 250.081 32.8C247.681 35.2667 245.814 38.1333 244.481 41.4C243.214 44.6667 242.581 48.1333 242.581 51.8ZM349.725 88V13H349.825L388.425 67.7L383.825 66.7L422.225 13H422.425V88H411.825V37.1L412.525 42.6L385.725 80.5H385.525L358.225 42.6L360.025 37.6V88H349.725ZM470.792 15.4H481.492V88H470.792V15.4ZM583.346 82.5C582.28 83.2333 580.68 84.1333 578.546 85.2C576.48 86.2 574.013 87.0667 571.146 87.8C568.346 88.5333 565.246 88.8667 561.846 88.8C556.18 88.7333 551.08 87.7333 546.546 85.8C542.08 83.8667 538.28 81.2333 535.146 77.9C532.013 74.5 529.58 70.6333 527.846 66.3C526.18 61.9 525.346 57.2333 525.346 52.3C525.346 46.8333 526.213 41.8333 527.946 37.3C529.68 32.7 532.146 28.7 535.346 25.3C538.613 21.9 542.413 19.2667 546.746 17.4C551.146 15.5333 555.946 14.6 561.146 14.6C565.613 14.6 569.646 15.2 573.246 16.4C576.846 17.6 579.88 19 582.346 20.6L578.146 30.6C576.213 29.2667 573.813 28 570.946 26.8C568.146 25.5333 565.013 24.9 561.546 24.9C558.146 24.9 554.913 25.6 551.846 27C548.846 28.3333 546.18 30.2333 543.846 32.7C541.58 35.1 539.78 37.9333 538.446 41.2C537.113 44.4 536.446 47.9 536.446 51.7C536.446 55.5667 537.046 59.1333 538.246 62.4C539.446 65.6667 541.146 68.5 543.346 70.9C545.613 73.3 548.313 75.1667 551.446 76.5C554.58 77.8333 558.113 78.5 562.046 78.5C565.78 78.5 569.046 77.9333 571.846 76.8C574.713 75.6667 577.046 74.3667 578.846 72.9L583.346 82.5ZM685.578 15.4V88H674.878V56.7H638.078V88H627.378V15.4H638.078V46.5H674.878V15.4H685.578ZM733.991 15.4H744.691V88H733.991V15.4Z"/>
</mask>
<path d="M8.6543 37.6L6.81885 36.8056L6.81383 36.8172L6.80896 36.8288L8.6543 37.6ZM16.6543 25.7L15.2264 24.2996L16.6543 25.7ZM28.4543 17.6L29.2487 19.4354L29.2602 19.4305L29.2716 19.4254L28.4543 17.6ZM57.1543 17.6L56.337 19.4254L56.3484 19.4305L56.3599 19.4354L57.1543 17.6ZM69.0543 25.7L67.6401 27.1142V27.1142L69.0543 25.7ZM77.1543 37.6L75.3189 38.3944L77.1543 37.6ZM77.1543 66.2L78.9897 66.9944L77.1543 66.2ZM69.0543 78L67.6539 76.5721L67.6469 76.5789L67.6401 76.5858L69.0543 78ZM57.1543 86L57.9255 87.8453L57.9322 87.8425L57.9389 87.8397L57.1543 86ZM28.4543 86L29.2255 84.1547L28.4543 86ZM16.6543 78.2L15.2401 79.6142L15.2471 79.6212L15.2542 79.6281L16.6543 78.2ZM8.6543 66.4L6.80494 67.1615L6.81175 67.178L6.81885 67.1944L8.6543 66.4ZM18.8543 62.3L17.0026 63.0558L17.012 63.0788L17.022 63.1016L18.8543 62.3ZM24.5543 70.8L23.1208 72.1947L23.1304 72.2045L23.1401 72.2142L24.5543 70.8ZM32.8543 76.5L32.0384 78.326L32.0616 78.3364L32.0851 78.3462L32.8543 76.5ZM53.2543 76.5L54.0374 78.3403L54.0539 78.3333L54.0702 78.326L53.2543 76.5ZM61.4543 70.8L60.0208 69.4053L60.0203 69.4058L61.4543 70.8ZM67.0543 62.3L68.9005 63.0692L68.9033 63.0625L68.906 63.0558L67.0543 62.3ZM66.9543 41.4L65.1026 42.1558L65.112 42.1788L65.122 42.2016L66.9543 41.4ZM61.3543 32.8L59.9014 34.1744L59.911 34.1846L59.9208 34.1947L61.3543 32.8ZM53.0543 27L52.2384 28.826L52.2455 28.8292L52.2527 28.8323L53.0543 27ZM32.6543 27L33.4702 28.826H33.4702L32.6543 27ZM24.3543 32.8L22.9208 31.4053L24.3543 32.8ZM18.7543 41.4L16.9026 40.6442L16.8959 40.6605L16.8896 40.6769L18.7543 41.4ZM7.8543 51.8C7.8543 47.0559 8.73843 42.5855 10.4996 38.3712L6.80896 36.8288C4.83683 41.5478 3.8543 46.5441 3.8543 51.8H7.8543ZM10.4897 38.3944C12.3258 34.1525 14.8545 30.3914 18.0822 27.1004L15.2264 24.2996C11.6541 27.9419 8.84947 32.1141 6.81885 36.8056L10.4897 38.3944ZM18.0822 27.1004C21.3007 23.8188 25.0188 21.2663 29.2487 19.4354L27.6599 15.7646C22.9565 17.8003 18.8079 20.6479 15.2264 24.2996L18.0822 27.1004ZM29.2716 19.4254C33.4687 17.5461 37.9886 16.6 42.8543 16.6V12.6C37.4533 12.6 32.3733 13.6539 27.637 15.7746L29.2716 19.4254ZM42.8543 16.6C47.6495 16.6 52.1365 17.5446 56.337 19.4254L57.9716 15.7746C53.2387 13.6554 48.1925 12.6 42.8543 12.6V16.6ZM56.3599 19.4354C60.5935 21.2679 64.3503 23.8244 67.6401 27.1142L70.4685 24.2858C66.825 20.6422 62.6484 17.7987 57.9487 15.7646L56.3599 19.4354ZM67.6401 27.1142C70.9299 30.404 73.4864 34.1608 75.3189 38.3944L78.9897 36.8056C76.9556 32.1059 74.1121 27.9293 70.4685 24.2858L67.6401 27.1142ZM75.3189 38.3944C77.1406 42.6034 78.0543 47.0656 78.0543 51.8H82.0543C82.0543 46.5344 81.0346 41.5299 78.9897 36.8056L75.3189 38.3944ZM78.0543 51.8C78.0543 56.6753 77.1377 61.2033 75.3189 65.4056L78.9897 66.9944C81.0375 62.2634 82.0543 57.1914 82.0543 51.8H78.0543ZM75.3189 65.4056C73.488 69.6355 70.9355 73.3536 67.6539 76.5721L70.4547 79.4279C74.1064 75.8464 76.954 71.6978 78.9897 66.9944L75.3189 65.4056ZM67.6401 76.5858C64.4254 79.8005 60.6739 82.3247 56.3697 84.1603L57.9389 87.8397C62.7014 85.8086 66.8832 82.9995 70.4685 79.4142L67.6401 76.5858ZM56.3831 84.1547C52.1721 85.9145 47.6688 86.8 42.8543 86.8V90.8C48.1732 90.8 53.2032 89.8188 57.9255 87.8453L56.3831 84.1547ZM42.8543 86.8C37.9695 86.8 33.4333 85.9132 29.2255 84.1547L27.6831 87.8453C32.4086 89.8202 37.4724 90.8 42.8543 90.8V86.8ZM29.2255 84.1547C24.989 82.3842 21.2701 79.9245 18.0544 76.7719L15.2542 79.6281C18.8385 83.1422 22.9862 85.8825 27.6831 87.8453L29.2255 84.1547ZM18.0685 76.7858C14.8489 73.5662 12.3242 69.8438 10.4897 65.6056L6.81885 67.1944C8.85104 71.8895 11.6597 76.0338 15.2401 79.6142L18.0685 76.7858ZM10.5037 65.6385C8.74239 61.3611 7.8543 56.7548 7.8543 51.8H3.8543C3.8543 57.2452 4.83287 62.3722 6.80494 67.1615L10.5037 65.6385ZM14.8543 51.8C14.8543 55.7772 15.5657 59.5354 17.0026 63.0558L20.706 61.5442C19.4762 58.5312 18.8543 55.2894 18.8543 51.8H14.8543ZM17.022 63.1016C18.5168 66.5183 20.5508 69.5533 23.1208 72.1947L25.9878 69.4053C23.7578 67.1134 21.9918 64.4817 20.6866 61.4984L17.022 63.1016ZM23.1401 72.2142C25.7147 74.7888 28.6847 76.8276 32.0384 78.326L33.6702 74.674C30.7572 73.3724 28.1939 71.6112 25.9685 69.3858L23.1401 72.2142ZM32.0851 78.3462C35.5427 79.7868 39.239 80.5 43.1543 80.5V76.5C39.7362 76.5 36.5659 75.8798 33.6235 74.6538L32.0851 78.3462ZM43.1543 80.5C47.0078 80.5 50.6424 79.785 54.0374 78.3403L52.4712 74.6597C49.5995 75.8817 46.5008 76.5 43.1543 76.5V80.5ZM54.0702 78.326C57.4291 76.8252 60.3737 74.7806 62.8883 72.1942L60.0203 69.4058C57.8683 71.6194 55.3462 73.3748 52.4384 74.674L54.0702 78.326ZM62.8878 72.1947C65.4648 69.5461 67.4709 66.5001 68.9005 63.0692L65.2081 61.5308C63.971 64.4999 62.2438 67.1206 60.0208 69.4053L62.8878 72.1947ZM68.906 63.0558C70.3429 59.5354 71.0543 55.7772 71.0543 51.8H67.0543C67.0543 55.2894 66.4324 58.5312 65.2026 61.5442L68.906 63.0558ZM71.0543 51.8C71.0543 47.81 70.3047 44.0682 68.7866 40.5984L65.122 42.2016C66.4039 45.1318 67.0543 48.3233 67.0543 51.8H71.0543ZM68.806 40.6442C67.3781 37.1458 65.3715 34.0608 62.7878 31.4053L59.9208 34.1947C62.1371 36.4726 63.8639 39.1209 65.1026 42.1558L68.806 40.6442ZM62.8072 31.4256C60.2844 28.7585 57.2943 26.672 53.8559 25.1677L52.2527 28.8323C55.2143 30.128 57.7576 31.9081 59.9014 34.1744L62.8072 31.4256ZM53.8702 25.174C50.4676 23.6537 46.8214 22.9 42.9543 22.9V26.9C46.2872 26.9 49.3743 27.5463 52.2384 28.826L53.8702 25.174ZM42.9543 22.9C38.9648 22.9 35.2503 23.6495 31.8384 25.174L33.4702 28.826C36.3249 27.5505 39.4772 26.9 42.9543 26.9V22.9ZM31.8384 25.174C28.4731 26.6776 25.497 28.7576 22.9208 31.4053L25.7878 34.1947C28.0116 31.9091 30.5688 30.1224 33.4702 28.826L31.8384 25.174ZM22.9208 31.4053C20.3371 34.0608 18.3305 37.1458 16.9026 40.6442L20.606 42.1558C21.8447 39.1209 23.5715 36.4726 25.7878 34.1947L22.9208 31.4053ZM16.8896 40.6769C15.5294 44.1848 14.8543 47.8977 14.8543 51.8H18.8543C18.8543 48.369 19.4459 45.1485 20.619 42.1231L16.8896 40.6769ZM187.299 90.5L185.89 91.9193L186.475 92.5H187.299V90.5ZM131.399 35L132.013 33.0966L129.99 36.4193L131.399 35ZM134.499 36L136.499 35.9885L136.49 34.541L135.113 34.0966L134.499 36ZM134.799 88V90H136.81L136.799 87.9885L134.799 88ZM123.999 88H121.999V90H123.999V88ZM123.999 13.1V11.1H121.999V13.1H123.999ZM124.499 13.1L125.918 11.6909L125.331 11.1H124.499V13.1ZM179.699 68.7L179.16 70.6259L186.458 72.6695L181.118 67.2909L179.699 68.7ZM177.199 68L175.199 68.0076L175.205 69.5185L176.66 69.9259L177.199 68ZM176.999 15.4V13.4H174.991L174.999 15.4076L176.999 15.4ZM187.599 15.4H189.599V13.4H187.599V15.4ZM187.599 90.5V92.5H189.599V90.5H187.599ZM188.708 89.0807L132.808 33.5807L129.99 36.4193L185.89 91.9193L188.708 89.0807ZM130.785 36.9034L133.885 37.9034L135.113 34.0966L132.013 33.0966L130.785 36.9034ZM132.499 36.0115L132.799 88.0115L136.799 87.9885L136.499 35.9885L132.499 36.0115ZM134.799 86H123.999V90H134.799V86ZM125.999 88V13.1H121.999V88H125.999ZM123.999 15.1H124.499V11.1H123.999V15.1ZM123.08 14.5091L178.28 70.1091L181.118 67.2909L125.918 11.6909L123.08 14.5091ZM180.238 66.7741L177.738 66.0741L176.66 69.9259L179.16 70.6259L180.238 66.7741ZM179.199 67.9924L178.999 15.3924L174.999 15.4076L175.199 68.0076L179.199 67.9924ZM176.999 17.4H187.599V13.4H176.999V17.4ZM185.599 15.4V90.5H189.599V15.4H185.599ZM187.599 88.5H187.299V92.5H187.599V88.5ZM234.381 37.6L232.545 36.8056L232.54 36.8172L232.536 36.8288L234.381 37.6ZM242.381 25.7L240.953 24.2996L242.381 25.7ZM254.181 17.6L254.975 19.4354L254.987 19.4305L254.998 19.4254L254.181 17.6ZM282.881 17.6L282.064 19.4254L282.075 19.4305L282.086 19.4354L282.881 17.6ZM294.781 25.7L293.367 27.1142V27.1142L294.781 25.7ZM302.881 37.6L301.045 38.3944L302.881 37.6ZM302.881 66.2L304.716 66.9944L302.881 66.2ZM294.781 78L293.38 76.5721L293.374 76.5789L293.367 76.5858L294.781 78ZM282.881 86L283.652 87.8453L283.659 87.8425L283.665 87.8397L282.881 86ZM254.181 86L254.952 84.1547L254.181 86ZM242.381 78.2L240.967 79.6142L240.974 79.6212L240.981 79.6281L242.381 78.2ZM234.381 66.4L232.532 67.1615L232.538 67.178L232.545 67.1944L234.381 66.4ZM244.581 62.3L242.729 63.0558L242.739 63.0788L242.749 63.1016L244.581 62.3ZM250.281 70.8L248.847 72.1947L248.857 72.2045L248.867 72.2142L250.281 70.8ZM258.581 76.5L257.765 78.326L257.788 78.3364L257.812 78.3462L258.581 76.5ZM278.981 76.5L279.764 78.3403L279.78 78.3333L279.797 78.326L278.981 76.5ZM287.181 70.8L285.747 69.4053L285.747 69.4058L287.181 70.8ZM292.781 62.3L294.627 63.0692L294.63 63.0625L294.633 63.0558L292.781 62.3ZM292.681 41.4L290.829 42.1558L290.839 42.1788L290.849 42.2016L292.681 41.4ZM287.081 32.8L285.628 34.1744L285.638 34.1846L285.647 34.1947L287.081 32.8ZM278.781 27L277.965 28.826L277.972 28.8292L277.979 28.8323L278.781 27ZM258.381 27L259.197 28.826L258.381 27ZM250.081 32.8L248.647 31.4053L250.081 32.8ZM244.481 41.4L242.629 40.6442L242.623 40.6605L242.616 40.6769L244.481 41.4ZM233.581 51.8C233.581 47.0559 234.465 42.5855 236.226 38.3712L232.536 36.8288C230.563 41.5478 229.581 46.5441 229.581 51.8H233.581ZM236.216 38.3944C238.052 34.1525 240.581 30.3914 243.809 27.1004L240.953 24.2996C237.381 27.9419 234.576 32.1141 232.545 36.8056L236.216 38.3944ZM243.809 27.1004C247.027 23.8188 250.745 21.2663 254.975 19.4354L253.386 15.7646C248.683 17.8003 244.534 20.6479 240.953 24.2996L243.809 27.1004ZM254.998 19.4254C259.195 17.5461 263.715 16.6 268.581 16.6V12.6C263.18 12.6 258.1 13.6539 253.364 15.7746L254.998 19.4254ZM268.581 16.6C273.376 16.6 277.863 17.5446 282.064 19.4254L283.698 15.7746C278.965 13.6554 273.919 12.6 268.581 12.6V16.6ZM282.086 19.4354C286.32 21.2679 290.077 23.8244 293.367 27.1142L296.195 24.2858C292.552 20.6422 288.375 17.7987 283.675 15.7646L282.086 19.4354ZM293.367 27.1142C296.656 30.404 299.213 34.1608 301.045 38.3944L304.716 36.8056C302.682 32.1059 299.839 27.9293 296.195 24.2858L293.367 27.1142ZM301.045 38.3944C302.867 42.6034 303.781 47.0656 303.781 51.8H307.781C307.781 46.5344 306.761 41.5299 304.716 36.8056L301.045 38.3944ZM303.781 51.8C303.781 56.6753 302.864 61.2033 301.045 65.4056L304.716 66.9944C306.764 62.2634 307.781 57.1914 307.781 51.8H303.781ZM301.045 65.4056C299.215 69.6355 296.662 73.3536 293.38 76.5721L296.181 79.4279C299.833 75.8464 302.681 71.6978 304.716 66.9944L301.045 65.4056ZM293.367 76.5858C290.152 79.8005 286.4 82.3247 282.096 84.1603L283.665 87.8397C288.428 85.8086 292.61 82.9995 296.195 79.4142L293.367 76.5858ZM282.11 84.1547C277.899 85.9145 273.395 86.8 268.581 86.8V90.8C273.9 90.8 278.93 89.8188 283.652 87.8453L282.11 84.1547ZM268.581 86.8C263.696 86.8 259.16 85.9132 254.952 84.1547L253.41 87.8453C258.135 89.8202 263.199 90.8 268.581 90.8V86.8ZM254.952 84.1547C250.716 82.3842 246.997 79.9245 243.781 76.7719L240.981 79.6281C244.565 83.1422 248.713 85.8825 253.41 87.8453L254.952 84.1547ZM243.795 76.7858C240.576 73.5662 238.051 69.8438 236.216 65.6056L232.545 67.1944C234.578 71.8895 237.386 76.0338 240.967 79.6142L243.795 76.7858ZM236.23 65.6385C234.469 61.3611 233.581 56.7548 233.581 51.8H229.581C229.581 57.2452 230.559 62.3722 232.532 67.1615L236.23 65.6385ZM240.581 51.8C240.581 55.7772 241.292 59.5354 242.729 63.0558L246.433 61.5442C245.203 58.5312 244.581 55.2894 244.581 51.8H240.581ZM242.749 63.1016C244.243 66.5183 246.277 69.5533 248.847 72.1947L251.714 69.4053C249.484 67.1134 247.718 64.4817 246.413 61.4984L242.749 63.1016ZM248.867 72.2142C251.441 74.7888 254.411 76.8276 257.765 78.326L259.397 74.674C256.484 73.3724 253.92 71.6112 251.695 69.3858L248.867 72.2142ZM257.812 78.3462C261.269 79.7868 264.966 80.5 268.881 80.5V76.5C265.463 76.5 262.292 75.8798 259.35 74.6538L257.812 78.3462ZM268.881 80.5C272.734 80.5 276.369 79.785 279.764 78.3403L278.198 74.6597C275.326 75.8817 272.227 76.5 268.881 76.5V80.5ZM279.797 78.326C283.156 76.8252 286.1 74.7806 288.615 72.1942L285.747 69.4058C283.595 71.6194 281.073 73.3748 278.165 74.674L279.797 78.326ZM288.614 72.1947C291.191 69.5461 293.197 66.5001 294.627 63.0692L290.935 61.5308C289.698 64.4999 287.97 67.1206 285.747 69.4053L288.614 72.1947ZM294.633 63.0558C296.069 59.5354 296.781 55.7772 296.781 51.8H292.781C292.781 55.2894 292.159 58.5312 290.929 61.5442L294.633 63.0558ZM296.781 51.8C296.781 47.81 296.031 44.0682 294.513 40.5984L290.849 42.2016C292.13 45.1318 292.781 48.3233 292.781 51.8H296.781ZM294.533 40.6442C293.105 37.1458 291.098 34.0608 288.514 31.4053L285.647 34.1947C287.864 36.4726 289.59 39.1209 290.829 42.1558L294.533 40.6442ZM288.534 31.4256C286.011 28.7585 283.021 26.672 279.582 25.1677L277.979 28.8323C280.941 30.128 283.484 31.9081 285.628 34.1744L288.534 31.4256ZM279.597 25.174C276.194 23.6537 272.548 22.9 268.681 22.9V26.9C272.014 26.9 275.101 27.5463 277.965 28.826L279.597 25.174ZM268.681 22.9C264.691 22.9 260.977 23.6495 257.565 25.174L259.197 28.826C262.052 27.5505 265.204 26.9 268.681 26.9V22.9ZM257.565 25.174C254.2 26.6776 251.224 28.7576 248.647 31.4053L251.514 34.1947C253.738 31.9091 256.295 30.1224 259.197 28.826L257.565 25.174ZM248.647 31.4053C246.064 34.0608 244.057 37.1458 242.629 40.6442L246.333 42.1558C247.571 39.1209 249.298 36.4726 251.514 34.1947L248.647 31.4053ZM242.616 40.6769C241.256 44.1848 240.581 47.8977 240.581 51.8H244.581C244.581 48.369 245.172 45.1485 246.346 42.1231L242.616 40.6769ZM349.725 88H347.725V90H349.725V88ZM349.725 13V11H347.725V13H349.725ZM349.825 13L351.46 11.8469L350.862 11H349.825V13ZM388.425 67.7L388.001 69.6544L393.023 70.7461L390.06 66.5469L388.425 67.7ZM383.825 66.7L382.199 65.5367L380.431 68.0088L383.401 68.6544L383.825 66.7ZM422.225 13V11H421.197L420.599 11.8367L422.225 13ZM422.425 13H424.425V11H422.425V13ZM422.425 88V90H424.425V88H422.425ZM411.825 88H409.825V90H411.825V88ZM411.825 37.1L413.809 36.8475L409.825 37.1H411.825ZM412.525 42.6L414.158 43.7547L414.608 43.1194L414.509 42.3475L412.525 42.6ZM385.725 80.5V82.5H386.761L387.358 81.6547L385.725 80.5ZM385.525 80.5L383.903 81.6689L384.501 82.5H385.525V80.5ZM358.225 42.6L356.344 41.9226L355.987 42.914L356.603 43.7689L358.225 42.6ZM360.025 37.6H362.025L358.144 36.9226L360.025 37.6ZM360.025 88V90H362.025V88H360.025ZM351.725 88V13H347.725V88H351.725ZM349.725 15H349.825V11H349.725V15ZM348.191 14.1531L386.791 68.8531L390.06 66.5469L351.46 11.8469L348.191 14.1531ZM388.85 65.7456L384.25 64.7456L383.401 68.6544L388.001 69.6544L388.85 65.7456ZM385.452 67.8633L423.852 14.1633L420.599 11.8367L382.199 65.5367L385.452 67.8633ZM422.225 15H422.425V11H422.225V15ZM420.425 13V88H424.425V13H420.425ZM422.425 86H411.825V90H422.425V86ZM413.825 88V37.1H409.825V88H413.825ZM409.841 37.3525L410.541 42.8525L414.509 42.3475L413.809 36.8475L409.841 37.3525ZM410.892 41.4453L384.092 79.3453L387.358 81.6547L414.158 43.7547L410.892 41.4453ZM385.725 78.5H385.525V82.5H385.725V78.5ZM387.148 79.3311L359.848 41.431L356.603 43.7689L383.903 81.6689L387.148 79.3311ZM360.107 43.2774L361.907 38.2774L358.144 36.9226L356.344 41.9226L360.107 43.2774ZM358.025 37.6V88H362.025V37.6H358.025ZM360.025 86H349.725V90H360.025V86ZM470.792 15.4V13.4H468.792V15.4H470.792ZM481.492 15.4H483.492V13.4H481.492V15.4ZM481.492 88V90H483.492V88H481.492ZM470.792 88H468.792V90H470.792V88ZM470.792 17.4H481.492V13.4H470.792V17.4ZM479.492 15.4V88H483.492V15.4H479.492ZM481.492 86H470.792V90H481.492V86ZM472.792 88V15.4H468.792V88H472.792ZM583.346 82.5L584.48 84.1481L585.877 83.1871L585.157 81.6511L583.346 82.5ZM578.547 85.2L579.418 87.0003L579.429 86.9947L579.441 86.9889L578.547 85.2ZM571.146 87.8L570.651 85.8624L570.64 85.8653L571.146 87.8ZM561.846 88.8L561.886 86.8004L561.878 86.8002L561.87 86.8001L561.846 88.8ZM546.547 85.8L545.752 87.6355L545.762 87.6397L546.547 85.8ZM535.146 77.9L533.676 79.2554L533.682 79.2626L533.689 79.2698L535.146 77.9ZM527.846 66.3L525.976 67.0085L525.983 67.0257L525.99 67.0428L527.846 66.3ZM527.946 37.3L529.815 38.0143L529.818 38.0052L527.946 37.3ZM535.346 25.3L533.904 23.9143L533.897 23.9218L533.89 23.9293L535.346 25.3ZM546.746 17.4L545.965 15.5588L545.955 15.5632L546.746 17.4ZM573.246 16.4L572.614 18.2974L573.246 16.4ZM582.346 20.6L584.19 21.3745L584.838 19.8323L583.435 18.9221L582.346 20.6ZM578.146 30.6L577.011 32.2464L579.037 33.6439L579.99 31.3745L578.146 30.6ZM570.946 26.8L570.122 28.6222L570.148 28.6339L570.174 28.6449L570.946 26.8ZM551.846 27L552.659 28.8276L552.668 28.8235L552.677 28.8194L551.846 27ZM543.846 32.7L542.394 31.3256L542.392 31.3267L543.846 32.7ZM538.446 41.2L540.293 41.9692L540.295 41.9625L540.298 41.9558L538.446 41.2ZM538.246 62.4L536.369 63.0896L538.246 62.4ZM543.346 70.9L541.872 72.2514L541.882 72.2624L541.892 72.2732L543.346 70.9ZM551.446 76.5L550.663 78.3403L551.446 76.5ZM571.846 76.8L571.111 74.9401L571.104 74.9431L571.096 74.9461L571.846 76.8ZM578.846 72.9L580.657 72.0511L579.57 69.7308L577.583 71.3495L578.846 72.9ZM582.213 80.8519C581.262 81.5063 579.759 82.3576 577.652 83.4111L579.441 86.9889C581.6 85.9091 583.298 84.9603 584.48 84.1481L582.213 80.8519ZM577.675 83.3997C575.758 84.3276 573.423 85.1532 570.651 85.8624L571.642 89.7376C574.603 88.9801 577.202 88.0724 579.418 87.0003L577.675 83.3997ZM570.64 85.8653C568.046 86.5446 565.133 86.8641 561.886 86.8004L561.807 90.7996C565.36 90.8693 568.647 90.522 571.653 89.7347L570.64 85.8653ZM561.87 86.8001C556.426 86.7361 551.59 85.7767 547.331 83.9603L545.762 87.6397C550.569 89.6899 555.933 90.7306 561.823 90.7999L561.87 86.8001ZM547.341 83.9646C543.108 82.1326 539.538 79.6522 536.604 76.5302L533.689 79.2698C537.021 82.8145 541.051 85.6008 545.752 87.6354L547.341 83.9646ZM536.617 76.5446C533.65 73.3253 531.347 69.6667 529.703 65.5572L525.99 67.0428C527.812 71.5999 530.376 75.6747 533.676 79.2554L536.617 76.5446ZM529.717 65.5915C528.14 61.4288 527.346 57.0032 527.346 52.3H523.346C523.346 57.4635 524.22 62.3712 525.976 67.0085L529.717 65.5915ZM527.346 52.3C527.346 47.0468 528.179 42.2926 529.815 38.0143L526.078 36.5857C524.248 41.3741 523.346 46.6198 523.346 52.3H527.346ZM529.818 38.0052C531.463 33.639 533.793 29.8684 536.803 26.6707L533.89 23.9293C530.5 27.5316 527.896 31.761 526.075 36.5948L529.818 38.0052ZM536.789 26.6856C539.87 23.4781 543.449 20.9981 547.538 19.2368L545.955 15.5632C541.377 17.5353 537.356 20.3219 533.904 23.9143L536.789 26.6856ZM547.528 19.2412C551.659 17.4882 556.191 16.6 561.146 16.6V12.6C555.702 12.6 550.633 13.5784 545.965 15.5588L547.528 19.2412ZM561.146 16.6C565.435 16.6 569.25 17.1762 572.614 18.2974L573.879 14.5026C570.043 13.2238 565.791 12.6 561.146 12.6V16.6ZM572.614 18.2974C576.097 19.4584 578.968 20.7922 581.258 22.2779L583.435 18.9221C580.792 17.2078 577.596 15.7416 573.879 14.5026L572.614 18.2974ZM580.503 19.8255L576.303 29.8255L579.99 31.3745L584.19 21.3745L580.503 19.8255ZM579.282 28.9536C577.205 27.5212 574.675 26.1925 571.719 24.9551L570.174 28.6449C572.952 29.8075 575.221 31.0121 577.011 32.2464L579.282 28.9536ZM571.771 24.9778C568.681 23.5798 565.261 22.9 561.547 22.9V26.9C564.765 26.9 567.612 27.4869 570.122 28.6222L571.771 24.9778ZM561.547 22.9C557.862 22.9 554.346 23.6605 551.016 25.1806L552.677 28.8194C555.481 27.5394 558.431 26.9 561.547 26.9V22.9ZM551.034 25.1724C547.785 26.6167 544.902 28.6737 542.394 31.3256L545.299 34.0744C547.458 31.7929 549.908 30.05 552.659 28.8276L551.034 25.1724ZM542.392 31.3267C539.945 33.9183 538.015 36.9648 536.595 40.4442L540.298 41.9558C541.545 38.9019 543.215 36.2817 545.301 34.0732L542.392 31.3267ZM536.6 40.4308C535.156 43.897 534.446 47.6615 534.446 51.7H538.446C538.446 48.1385 539.07 44.903 540.293 41.9692L536.6 40.4308ZM534.446 51.7C534.446 55.776 535.08 59.5789 536.369 63.0896L540.124 61.7104C539.013 58.6877 538.446 55.3574 538.446 51.7H534.446ZM536.369 63.0896C537.653 66.584 539.484 69.6463 541.872 72.2514L544.821 69.5486C542.809 67.3537 541.24 64.7493 540.124 61.7104L536.369 63.0896ZM541.892 72.2732C544.354 74.8798 547.285 76.9026 550.663 78.3403L552.23 74.6597C549.341 73.4307 546.872 71.7202 544.801 69.5267L541.892 72.2732ZM550.663 78.3403C554.08 79.7941 557.885 80.5 562.047 80.5V76.5C558.341 76.5 555.08 75.8726 552.23 74.6597L550.663 78.3403ZM562.047 80.5C565.978 80.5 569.509 79.9036 572.597 78.6539L571.096 74.9461C568.583 75.9631 565.581 76.5 562.047 76.5V80.5ZM572.582 78.6599C575.581 77.4743 578.108 76.0813 580.11 74.4505L577.583 71.3495C575.985 72.652 573.846 73.8591 571.111 74.9401L572.582 78.6599ZM577.036 73.7489L581.536 83.3489L585.157 81.6511L580.657 72.0511L577.036 73.7489ZM685.578 15.4H687.578V13.4H685.578V15.4ZM685.578 88V90H687.578V88H685.578ZM674.878 88H672.878V90H674.878V88ZM674.878 56.7H676.878V54.7H674.878V56.7ZM638.078 56.7V54.7H636.078V56.7H638.078ZM638.078 88V90H640.078V88H638.078ZM627.378 88H625.378V90H627.378V88ZM627.378 15.4V13.4H625.378V15.4H627.378ZM638.078 15.4H640.078V13.4H638.078V15.4ZM638.078 46.5H636.078V48.5H638.078V46.5ZM674.878 46.5V48.5H676.878V46.5H674.878ZM674.878 15.4V13.4H672.878V15.4H674.878ZM683.578 15.4V88H687.578V15.4H683.578ZM685.578 86H674.878V90H685.578V86ZM676.878 88V56.7H672.878V88H676.878ZM674.878 54.7H638.078V58.7H674.878V54.7ZM636.078 56.7V88H640.078V56.7H636.078ZM638.078 86H627.378V90H638.078V86ZM629.378 88V15.4H625.378V88H629.378ZM627.378 17.4H638.078V13.4H627.378V17.4ZM636.078 15.4V46.5H640.078V15.4H636.078ZM638.078 48.5H674.878V44.5H638.078V48.5ZM676.878 46.5V15.4H672.878V46.5H676.878ZM674.878 17.4H685.578V13.4H674.878V17.4ZM733.991 15.4V13.4H731.991V15.4H733.991ZM744.691 15.4H746.691V13.4H744.691V15.4ZM744.691 88V90H746.691V88H744.691ZM733.991 88H731.991V90H733.991V88ZM733.991 17.4H744.691V13.4H733.991V17.4ZM742.691 15.4V88H746.691V15.4H742.691ZM744.691 86H733.991V90H744.691V86ZM735.991 88V15.4H731.991V88H735.991Z" fill="#9ED0E0" mask="url(#path-1-outside-1_652_926)"/>
</svg>
