<svg width="110" height="110" viewBox="0 0 110 110" fill="none" xmlns="http://www.w3.org/2000/svg">
<circle cx="55" cy="55" r="55" fill="#CE2073"/>
<path d="M26.7675 61.1111H22.1684V48.5321C22.1684 48.1869 22.1684 47.7605 22.1684 47.2528C22.1887 46.7452 22.209 46.2173 22.2293 45.669C22.2496 45.1208 22.2699 44.6335 22.2902 44.207C22.1887 44.3289 21.9654 44.5522 21.6202 44.8771C21.2953 45.1817 20.9907 45.4558 20.7064 45.6995L18.2089 47.7097L15.9855 44.938L22.9908 39.3643H26.7675V61.1111ZM47.9133 50.2377C47.9133 51.9839 47.7712 53.5474 47.4869 54.9282C47.223 56.3089 46.7864 57.4866 46.1772 58.4613C45.5884 59.4156 44.8066 60.1466 43.832 60.6542C42.8776 61.1619 41.6999 61.4157 40.2989 61.4157C38.5526 61.4157 37.1211 60.969 36.0043 60.0755C34.8876 59.1821 34.055 57.9029 33.5068 56.2379C32.9789 54.5728 32.7149 52.5728 32.7149 50.2377C32.7149 47.8823 32.9586 45.8721 33.4459 44.207C33.9332 42.542 34.7353 41.2628 35.852 40.3694C36.9688 39.4759 38.4511 39.0292 40.2989 39.0292C42.0451 39.0292 43.4766 39.4759 44.5934 40.3694C45.7102 41.2425 46.5427 42.5217 47.091 44.207C47.6392 45.8721 47.9133 47.8823 47.9133 50.2377ZM37.2836 50.2377C37.2836 51.8824 37.3749 53.2632 37.5577 54.3799C37.7404 55.4764 38.045 56.3089 38.4714 56.8775C38.9181 57.4257 39.5273 57.6998 40.2989 57.6998C41.0705 57.6998 41.6695 57.4257 42.0959 56.8775C42.5426 56.3292 42.8573 55.5069 43.0401 54.4104C43.2431 53.2936 43.3447 51.9027 43.3447 50.2377C43.3447 48.5727 43.2431 47.1919 43.0401 46.0954C42.8573 44.9786 42.5426 44.1461 42.0959 43.5979C41.6695 43.0293 41.0705 42.7451 40.2989 42.7451C39.5273 42.7451 38.9181 43.0293 38.4714 43.5979C38.045 44.1461 37.7404 44.9786 37.5577 46.0954C37.3749 47.1919 37.2836 48.5727 37.2836 50.2377ZM65.3433 50.2377C65.3433 51.9839 65.2011 53.5474 64.9169 54.9282C64.6529 56.3089 64.2163 57.4866 63.6072 58.4613C63.0183 59.4156 62.2366 60.1466 61.2619 60.6542C60.3076 61.1619 59.1299 61.4157 57.7288 61.4157C55.9826 61.4157 54.5511 60.969 53.4343 60.0755C52.3175 59.1821 51.485 57.9029 50.9367 56.2379C50.4088 54.5728 50.1448 52.5728 50.1448 50.2377C50.1448 47.8823 50.3885 45.8721 50.8758 44.207C51.3632 42.542 52.1652 41.2628 53.282 40.3694C54.3988 39.4759 55.8811 39.0292 57.7288 39.0292C59.4751 39.0292 60.9066 39.4759 62.0234 40.3694C63.1402 41.2425 63.9727 42.5217 64.5209 44.207C65.0692 45.8721 65.3433 47.8823 65.3433 50.2377ZM54.7135 50.2377C54.7135 51.8824 54.8049 53.2632 54.9876 54.3799C55.1704 55.4764 55.475 56.3089 55.9014 56.8775C56.3481 57.4257 56.9572 57.6998 57.7288 57.6998C58.5004 57.6998 59.0994 57.4257 59.5258 56.8775C59.9726 56.3292 60.2873 55.5069 60.47 54.4104C60.6731 53.2936 60.7746 51.9027 60.7746 50.2377C60.7746 48.5727 60.6731 47.1919 60.47 46.0954C60.2873 44.9786 59.9726 44.1461 59.5258 43.5979C59.0994 43.0293 58.5004 42.7451 57.7288 42.7451C56.9572 42.7451 56.3481 43.0293 55.9014 43.5979C55.475 44.1461 55.1704 44.9786 54.9876 46.0954C54.8049 47.1919 54.7135 48.5727 54.7135 50.2377ZM70.2036 60.544H74.5841V61.6098H70.2036V60.544ZM69.7147 53.768H73.1761V54.8044H69.7147V53.768ZM69.969 52.7511L71.289 53.0151C70.4579 54.4427 69.2845 55.7529 67.5245 56.8089C67.3583 56.5156 66.9672 56.0853 66.7032 55.88C68.3165 55.0293 69.4019 53.8364 69.969 52.7511ZM72.8045 53.768H73.0294L73.225 53.7093L74.0365 54.1396C72.8925 57.1804 70.2819 59.1751 67.3681 60.1529C67.2214 59.8302 66.9281 59.3511 66.6836 59.1067C69.3823 58.3244 71.905 56.4276 72.8045 53.9636V53.768ZM68.4339 55.9191L69.3041 55.1564C69.9787 55.6356 70.8685 56.3298 71.2987 56.8382L70.3503 57.6889C69.9787 57.1804 69.1085 56.4276 68.4339 55.9191ZM74.0365 57.5618H75.2587V62.0009H74.0365V57.5618ZM70.7023 57.5618H74.6232V58.6276H70.7023V61.9813H69.529V58.432L70.4187 57.5618H70.7023ZM80.1379 53.8951H85.5059V54.824H80.1379V53.8951ZM80.4019 55.2053H85.3005V56.0853H80.4019V55.2053ZM79.9521 56.5058H85.6819V57.464H79.9521V56.5058ZM83.9023 52.7902L85.0659 53.0738C84.8019 53.5138 84.5379 53.944 84.3423 54.2276L83.4232 53.9636C83.5992 53.6213 83.8045 53.1324 83.9023 52.7902ZM80.7636 53.1324L81.6827 52.8293C81.9076 53.1618 82.1521 53.6116 82.2401 53.9147L81.2623 54.2667C81.1841 53.9636 80.969 53.4844 80.7636 53.1324ZM84.753 57.6498L85.633 58.2756C85.2027 58.7253 84.6845 59.2044 84.2934 59.5173L83.5405 58.9404C83.9219 58.6178 84.4499 58.0604 84.753 57.6498ZM80.1379 58.2071L80.9396 57.6791C81.2916 58.0409 81.7219 58.5396 81.9174 58.8818L81.0765 59.4684C80.9005 59.1164 80.4899 58.5884 80.1379 58.2071ZM79.5707 60.4169C80.1574 60.1529 81.0179 59.7129 81.8587 59.2827L82.1619 60.2311C81.4774 60.632 80.705 61.0622 80.0792 61.4044L79.5707 60.4169ZM82.2596 54.5209H83.3841V60.8276C83.3841 61.3556 83.2961 61.6391 82.9832 61.8151C82.6605 61.9911 82.1912 62.0107 81.5752 62.0107C81.5459 61.7076 81.409 61.248 81.2721 60.9742C81.6045 60.984 81.9859 60.984 82.1032 60.984C82.2205 60.984 82.2596 60.9351 82.2596 60.8276V54.5209ZM83.3254 57.6498C83.7556 58.96 84.6161 60.0844 85.8676 60.5929C85.633 60.808 85.2907 61.2382 85.1245 61.5413C83.8534 60.8373 83.0223 59.4684 82.5627 57.8258L83.3254 57.6498ZM76.6863 54.8338H79.9227V55.9191H76.6863V54.8338ZM77.8792 52.8098H78.945V61.9911H77.8792V52.8098ZM77.8596 55.5769L78.5147 55.8018C78.2312 57.3467 77.6739 59.2338 76.9796 60.2409C76.8819 59.928 76.6276 59.4782 76.4614 59.2044C77.0872 58.3538 77.6347 56.8187 77.8596 55.5769ZM78.8961 56.2907C79.1112 56.5547 79.913 57.7867 80.0792 58.0604L79.473 58.9013C79.2579 58.3342 78.6712 57.2196 78.4072 56.76L78.8961 56.2907Z" fill="#FFEE56"/>
<path d="M90.4045 54.2764C91.6072 54.4427 93.5627 54.3938 94.609 54.2667V55.528C93.4161 55.6453 91.6365 55.6453 90.4143 55.528L90.4045 54.2764ZM91.1867 58.4516C91.1085 58.784 91.0694 59.0187 91.0694 59.2729C91.0694 59.7129 91.4507 59.9769 92.4481 59.9769C93.3183 59.9769 94.0419 59.8987 94.8925 59.7129L94.9219 61.0329C94.2863 61.16 93.4943 61.2284 92.3894 61.2284C90.7076 61.2284 89.8961 60.6222 89.8961 59.6249C89.8961 59.2338 89.9547 58.8524 90.0721 58.3538L91.1867 58.4516ZM88.8987 53.6213C88.8303 53.8267 88.7032 54.3253 88.6641 54.5013C88.5272 55.1467 88.185 57.1022 88.185 58.08C88.185 58.2756 88.1947 58.52 88.2241 58.7156C88.3707 58.3831 88.5272 58.0507 88.6739 57.7182L89.2801 58.1973C88.9965 59.0187 88.6739 60.0747 88.5761 60.5929C88.5467 60.7396 88.5174 60.9547 88.5174 61.0524C88.5272 61.16 88.5272 61.3262 88.537 61.4631L87.4125 61.5316C87.217 60.8667 87.0312 59.6738 87.0312 58.344C87.0312 56.8676 87.3245 55.2249 87.4321 54.4622C87.4712 54.1982 87.5201 53.8267 87.5299 53.5138L88.8987 53.6213Z" fill="white"/>
<path d="M29.4439 71.416C29.4439 71.8854 29.8252 72.2667 30.2946 72.2667C30.7639 72.2667 31.1452 71.8854 31.1452 71.416C31.1452 70.9467 30.7639 70.5654 30.2946 70.5654C29.8252 70.5654 29.4439 70.9467 29.4439 71.416ZM28.5346 71.416C28.5346 70.448 29.3266 69.656 30.2946 69.656C31.2626 69.656 32.0546 70.448 32.0546 71.416C32.0546 72.384 31.2626 73.176 30.2946 73.176C29.3266 73.176 28.5346 72.384 28.5346 71.416ZM30.3239 72.5747C30.1772 72.8534 30.0746 73.2787 30.0012 73.5867C29.6639 75.024 29.0186 77.312 27.7866 78.94C26.4666 80.7 24.5159 82.152 21.8906 82.988L20.2919 81.228C23.2106 80.5534 24.8679 79.2774 26.0412 77.796C27.0239 76.5787 27.5812 74.9067 27.7719 73.6454C26.8772 73.6454 22.0372 73.6454 20.9372 73.6454C20.2626 73.6454 19.5732 73.6894 19.1919 73.7187V71.636C19.6319 71.6947 20.4532 71.768 20.9372 71.768C22.0372 71.768 26.9066 71.768 27.7279 71.768C28.0212 71.768 28.4906 71.7534 28.8719 71.6507L30.3239 72.5747ZM35.1932 81.5947C35.3546 81.228 35.3839 80.9787 35.3839 80.6414C35.3839 79.5267 35.3839 74.32 35.3839 72.6774C35.3839 72.1347 35.2959 71.4307 35.2079 71.02H37.5106C37.4372 71.5774 37.3786 72.12 37.3786 72.6774C37.3786 74.3054 37.3786 79.1894 37.3786 80.304C39.7692 79.6294 43.0399 77.752 44.9172 75.4494L45.9586 77.1214C43.9492 79.512 40.8986 81.272 37.4372 82.4014C37.2466 82.46 36.9239 82.5627 36.5719 82.7974L35.1932 81.5947ZM58.3373 70.184C58.7039 70.712 59.2319 71.6507 59.4959 72.1934L58.3226 72.692C58.0293 72.0907 57.5746 71.2254 57.1786 70.6534L58.3373 70.184ZM60.0679 69.524C60.4639 70.0667 60.9919 71.0054 61.2559 71.5187L60.0973 72.0174C59.7893 71.4014 59.3199 70.5507 58.9093 69.9934L60.0679 69.524ZM50.9159 80.4947C50.9159 79.292 50.9159 74.3494 50.9159 72.56C50.9159 72.0614 50.8719 71.3134 50.7986 70.8734H52.9839C52.9253 71.3134 52.8666 72.0614 52.8666 72.56C52.8666 74.3347 52.8666 78.3534 52.8666 79.9814C52.8666 80.9054 53.1159 81.2134 54.7293 81.2134C56.2693 81.2134 57.8973 81.0227 59.3493 80.7294L59.2906 82.724C58.0733 82.9 56.3279 83.0467 54.7439 83.0467C51.3999 83.0467 50.9159 82.24 50.9159 80.4947ZM60.1559 74.056C60.0239 74.2614 59.8039 74.5987 59.6719 74.848C59.0266 76.08 57.6919 78.0894 56.6359 79.1307L55.0226 78.1774C55.9906 77.312 56.9586 75.9627 57.3693 75.2C56.4746 75.3907 49.6839 76.7254 47.8359 77.1507L47.4839 75.2147C49.4639 74.98 56.3719 73.6307 57.7066 73.308C58.1173 73.2054 58.4693 73.1174 58.7479 72.956L60.1559 74.056ZM65.2013 71.02C66.2133 71.7094 68.1199 73.2347 68.9853 74.1294L67.4893 75.6547C66.7266 74.8334 64.8786 73.2347 63.8079 72.5014L65.2013 71.02ZM63.3533 80.788C65.6559 80.4654 67.5479 79.7174 68.9706 78.8814C71.4786 77.3854 73.3853 75.156 74.3239 73.176L75.4533 75.2294C74.3533 77.224 72.4026 79.248 70.0413 80.6707C68.5453 81.5654 66.6533 82.372 64.5999 82.724L63.3533 80.788ZM80.9239 80.7734C80.9239 79.644 80.9239 73.572 80.9239 72.34C80.9239 71.812 80.8799 71.0934 80.7773 70.5654H83.0653C83.0066 71.0934 82.9333 71.724 82.9333 72.34C82.9333 73.9534 82.9479 79.688 82.9479 80.7734C82.9479 81.184 83.0066 82.2107 83.0799 82.812H80.7773C80.8799 82.24 80.9239 81.3454 80.9239 80.7734ZM82.5079 74.364C84.4586 74.9067 87.6266 76.0654 89.0639 76.7694L88.2426 78.808C86.5706 77.9427 84.1066 77.004 82.5079 76.476V74.364Z" fill="white"/>
<path d="M26.2967 22.8745H27.5167V25.8345C27.5167 27.5645 27.3767 30.1645 26.4567 31.8145C26.2167 31.6245 25.6767 31.3245 25.3667 31.2145C26.2267 29.6745 26.2967 27.4145 26.2967 25.8345V22.8745ZM27.1967 22.8745H34.1567V25.5745H27.1967V24.5645H32.9467V23.8945H27.1967V22.8745ZM29.9367 26.2745H31.1167V30.1145C31.1167 30.5145 31.1967 30.5745 31.6867 30.5745C31.8967 30.5745 32.8767 30.5745 33.1367 30.5745C33.5267 30.5745 33.6067 30.4345 33.6667 29.6645C33.9167 29.8545 34.3967 30.0345 34.7267 30.1045C34.5767 31.3045 34.2467 31.6445 33.2467 31.6445C32.9567 31.6445 31.8167 31.6445 31.5467 31.6445C30.2667 31.6445 29.9367 31.3045 29.9367 30.1245V26.2745ZM32.2167 25.4045L33.1667 26.1745C31.7867 26.6545 29.8367 26.9745 28.1467 27.1545C28.1067 26.9145 27.9567 26.5245 27.8367 26.3045C29.4267 26.1145 31.2067 25.7845 32.2167 25.4045ZM27.7867 27.7445L33.6967 26.8845L33.8767 27.8345L27.9667 28.7245L27.7867 27.7445ZM27.5567 29.3445L34.3567 28.3445L34.5367 29.3045L27.7367 30.3345L27.5567 29.3445ZM38.2867 23.5445H44.6967V24.5145H38.2867V23.5445ZM40.7867 24.0145L42.1667 24.0945C41.9667 24.6345 41.6967 25.1745 41.5067 25.5345L40.5367 25.3645C40.6367 24.9645 40.7467 24.4045 40.7867 24.0145ZM42.4767 22.4445L43.6867 22.7045C43.4067 23.1445 43.1367 23.5645 42.9167 23.8545L41.9167 23.6045C42.1067 23.2745 42.3567 22.7845 42.4767 22.4445ZM39.2167 22.8145L40.1567 22.4645C40.4367 22.7645 40.7167 23.1945 40.8167 23.4945L39.8267 23.8845C39.7367 23.5945 39.4767 23.1345 39.2167 22.8145ZM37.9367 26.3545V30.0345H36.7667V27.4645H35.5967V26.3545H37.9367ZM37.9367 29.5145C38.3367 30.1745 39.0967 30.4645 40.1367 30.5045C41.3067 30.5545 43.5767 30.5245 44.9267 30.4145C44.7967 30.6945 44.5967 31.2745 44.5467 31.6345C43.3367 31.6945 41.3167 31.7145 40.1167 31.6645C38.8867 31.6145 38.0567 31.3245 37.4067 30.5445C36.9667 30.9345 36.5167 31.3145 35.9767 31.7545L35.3867 30.5045C35.8367 30.2245 36.3767 29.8745 36.8367 29.5145H37.9367ZM35.6167 23.4045L36.5067 22.6845C37.1067 23.1045 37.8367 23.7345 38.1867 24.2045L37.2267 24.9945C36.9267 24.5245 36.2067 23.8545 35.6167 23.4045ZM40.0967 27.2345V27.7545H42.8267V27.2345H40.0967ZM40.0967 28.5545V29.0845H42.8267V28.5545H40.0967ZM40.0967 25.9145V26.4345H42.8267V25.9145H40.0967ZM38.9667 25.0445H44.0067V29.9545H38.9667V25.0445ZM52.7767 22.7145C53.0267 23.0745 53.3767 23.7145 53.5667 24.0845L52.7667 24.4245C52.5567 24.0145 52.2567 23.4245 51.9867 23.0345L52.7767 22.7145ZM53.9567 22.2645C54.2167 22.6345 54.5867 23.2745 54.7667 23.6245L53.9667 23.9645C53.7667 23.5445 53.4367 22.9645 53.1667 22.5845L53.9567 22.2645ZM48.6567 23.9845C48.5967 23.7045 48.5267 23.4645 48.4467 23.2245L49.8667 23.0045C49.8867 23.1945 49.9267 23.5345 49.9667 23.7745C50.0667 24.4345 51.0567 29.4945 51.2667 30.5145C51.3367 30.8045 51.4267 31.1645 51.5167 31.4945L50.0767 31.7445C50.0267 31.3745 50.0067 31.0345 49.9367 30.7345C49.7867 29.8345 48.8167 24.7945 48.6567 23.9845ZM45.9267 25.2645C46.2367 25.2445 46.5367 25.2245 46.8567 25.1845C47.7067 25.0845 51.2067 24.5445 52.1067 24.3645C52.4167 24.3045 52.7967 24.2245 53.0367 24.1545L53.2867 25.4645C53.0667 25.4845 52.6567 25.5445 52.3567 25.5845C51.2967 25.7545 47.8567 26.3045 47.1067 26.4345C46.7967 26.4945 46.5367 26.5545 46.1967 26.6345L45.9267 25.2645ZM45.9367 28.1945C46.1967 28.1845 46.6567 28.1345 46.9667 28.0845C48.0367 27.9345 51.6867 27.3445 52.8367 27.1245C53.2267 27.0445 53.5967 26.9645 53.8667 26.8845L54.1267 28.2045C53.8567 28.2245 53.4467 28.3045 53.0767 28.3645C51.8067 28.5545 48.2067 29.1445 47.2167 29.3345C46.7867 29.4045 46.4467 29.4745 46.2167 29.5345L45.9367 28.1945ZM64.0567 24.2945C63.9567 24.4845 63.8867 24.7745 63.8367 24.9845C63.6067 25.9645 63.1667 27.5145 62.3267 28.6345C61.4267 29.8245 60.0967 30.8245 58.3067 31.3945L57.2167 30.1945C59.2067 29.7345 60.3267 28.8645 61.1367 27.8545C61.8067 27.0145 62.1767 25.8845 62.3167 25.0245C61.7067 25.0245 58.4067 25.0245 57.6567 25.0245C57.1967 25.0245 56.7267 25.0545 56.4667 25.0645V23.6545C56.7667 23.6945 57.3267 23.7345 57.6567 23.7345C58.4067 23.7345 61.7267 23.7345 62.2867 23.7345C62.4767 23.7345 62.7967 23.7245 63.0667 23.6645L64.0567 24.2945ZM68.2967 29.9945C68.2967 29.2245 68.2967 25.0845 68.2967 24.2445C68.2967 23.8845 68.2667 23.3945 68.1967 23.0345H69.7567C69.7167 23.3945 69.6667 23.8245 69.6667 24.2445C69.6667 25.3445 69.6767 29.2545 69.6767 29.9945C69.6767 30.2745 69.7167 30.9745 69.7667 31.3845H68.1967C68.2667 30.9945 68.2967 30.3845 68.2967 29.9945ZM69.3767 25.6245C70.7067 25.9945 72.8667 26.7845 73.8467 27.2645L73.2867 28.6545C72.1467 28.0645 70.4667 27.4245 69.3767 27.0645V25.6245ZM80.0267 22.9245C79.9467 23.2945 79.8167 23.8845 79.5367 24.6045C79.3267 25.0945 79.0367 25.6645 78.7567 26.0645C79.0267 25.9445 79.5567 25.8745 79.8967 25.8745C80.7267 25.8745 81.3567 26.3645 81.3567 27.2945C81.3567 27.8345 81.3867 28.9245 81.3967 29.5545H80.1967C80.2367 29.0845 80.2567 28.2345 80.2467 27.6945C80.2467 27.0545 79.8467 26.8445 79.4267 26.8445C78.8767 26.8445 78.2467 27.1745 77.8667 27.5345C77.5667 27.8345 77.2867 28.1945 76.9467 28.6345L75.8767 27.8345C77.1567 26.6545 77.9267 25.5745 78.3467 24.4745C78.5467 23.9345 78.6767 23.3245 78.7067 22.8145L80.0267 22.9245ZM76.2567 23.8545C76.7667 23.9245 77.5067 23.9645 78.0167 23.9645C79.3367 23.9645 81.1467 23.8945 82.5967 23.6345L82.5867 24.7945C81.1767 24.9945 79.1667 25.0845 77.9467 25.0845C77.5367 25.0845 76.8067 25.0645 76.2567 25.0145V23.8545ZM84.1767 26.6945C83.8667 26.7845 83.3267 26.9845 82.9867 27.1145C82.3367 27.3645 81.4367 27.7245 80.4967 28.2045C79.5867 28.6745 79.0967 29.1045 79.0967 29.6545C79.0967 30.2045 79.5767 30.3545 80.5467 30.3545C81.3967 30.3545 82.5167 30.2445 83.3967 30.0645L83.3567 31.3545C82.6867 31.4445 81.4667 31.5345 80.5167 31.5345C78.9567 31.5345 77.7867 31.1445 77.7867 29.8545C77.7867 28.4645 79.2167 27.6445 80.4167 27.0445C81.3367 26.5645 81.9667 26.3245 82.5667 26.0445C82.9567 25.8745 83.3067 25.7145 83.6867 25.5245L84.1767 26.6945Z" fill="white"/>
</svg>
